<svg width="23" height="23" viewBox="0 0 23 23" fill="none" xmlns="http://www.w3.org/2000/svg">
<circle cx="11.5" cy="11.5" r="11.5" fill="white"/>
<path d="M12.7236 7.52979H12.3262C12.1436 7.52979 11.9932 7.56917 11.875 7.64795C11.7568 7.72673 11.6584 7.83236 11.5796 7.96484C11.5044 8.09733 11.4435 8.25309 11.397 8.43213C11.3504 8.61117 11.3057 8.80273 11.2627 9.00684C11.2233 9.20736 11.1803 9.41504 11.1338 9.62988C11.0872 9.84115 11.0246 10.0488 10.9458 10.2529C10.867 10.4535 10.7668 10.645 10.645 10.8276C10.5233 11.0103 10.3693 11.1696 10.1831 11.3057C10.3729 11.4561 10.534 11.6387 10.6665 11.8535C10.8026 12.0648 10.9189 12.2957 11.0156 12.5464C11.1123 12.797 11.1965 13.0602 11.2681 13.3359C11.3397 13.6081 11.4077 13.8802 11.4722 14.1523C11.5402 14.4245 11.6082 14.6877 11.6763 14.9419C11.7479 15.1961 11.832 15.4307 11.9287 15.6455C12.029 15.8568 12.1453 16.0394 12.2778 16.1934C12.4139 16.3509 12.5768 16.4655 12.7666 16.5371C12.9492 16.6087 13.1462 16.6553 13.3574 16.6768C13.5687 16.7018 13.8158 16.7144 14.0986 16.7144L14.1201 16.9346C14.0736 16.9453 14.0199 16.9543 13.959 16.9614C13.9089 16.9686 13.8462 16.974 13.771 16.9775C13.6958 16.9847 13.6099 16.9883 13.5132 16.9883C12.9976 16.9883 12.5679 16.9274 12.2241 16.8057C11.884 16.6839 11.6047 16.5192 11.3862 16.3115C11.1714 16.1038 11.0067 15.8639 10.8921 15.5918C10.7811 15.3197 10.6951 15.0332 10.6343 14.7324C10.577 14.4316 10.5322 14.1255 10.5 13.814C10.4714 13.4989 10.432 13.1999 10.3818 12.917C10.3353 12.6305 10.2655 12.3691 10.1724 12.1328C10.0828 11.8929 9.94678 11.6942 9.76416 11.5366C9.62809 11.5903 9.47591 11.6369 9.30762 11.6763C9.1429 11.7157 8.96029 11.7407 8.75977 11.7515V13.25C8.75977 13.5508 8.75439 13.814 8.74365 14.0396C8.73649 14.2616 8.71501 14.4603 8.6792 14.6357C8.64697 14.8076 8.59684 14.9634 8.52881 15.103C8.46077 15.2391 8.36947 15.3734 8.25488 15.5059C8.05794 15.7314 7.77686 15.9159 7.41162 16.0591C7.04997 16.2023 6.62028 16.2739 6.12256 16.2739C5.81462 16.2739 5.521 16.231 5.2417 16.145C4.9624 16.0591 4.71712 15.9391 4.50586 15.7852C4.2946 15.6312 4.1263 15.4468 4.00098 15.2319C3.87565 15.0171 3.81299 14.779 3.81299 14.5176C3.81299 14.3242 3.84521 14.1506 3.90967 13.9966C3.97054 13.8426 4.05111 13.7065 4.15137 13.5884C4.24805 13.4666 4.35726 13.3628 4.479 13.2769C4.60075 13.1909 4.71891 13.1193 4.8335 13.062C4.9445 13.0047 5.04655 12.96 5.13965 12.9277C5.23633 12.8955 5.30794 12.874 5.35449 12.8633L5.46191 13.0835C5.37956 13.1265 5.28646 13.1855 5.18262 13.2607C5.08236 13.3324 4.98747 13.4255 4.89795 13.54C4.80843 13.651 4.73324 13.7871 4.67236 13.9482C4.61149 14.1094 4.58105 14.2992 4.58105 14.5176C4.58105 14.7503 4.62044 14.9598 4.69922 15.146C4.77799 15.3286 4.88721 15.4844 5.02686 15.6133C5.17008 15.7386 5.33838 15.8353 5.53174 15.9033C5.72868 15.9678 5.94352 16 6.17627 16C6.43766 16 6.67578 15.9642 6.89062 15.8926C7.10905 15.821 7.29525 15.701 7.44922 15.5327C7.60319 15.3644 7.72314 15.1406 7.80908 14.8613C7.89502 14.582 7.93799 14.2347 7.93799 13.8193V11.7192C7.83415 11.6978 7.74642 11.6709 7.6748 11.6387C7.60677 11.6029 7.55127 11.5653 7.5083 11.5259C7.46891 11.4829 7.44027 11.4399 7.42236 11.397C7.40446 11.354 7.39551 11.311 7.39551 11.2681C7.39551 11.2287 7.40446 11.1875 7.42236 11.1445C7.44027 11.098 7.46891 11.055 7.5083 11.0156C7.55127 10.9762 7.60677 10.9386 7.6748 10.9028C7.74642 10.867 7.83415 10.8384 7.93799 10.8169V10.3765C7.93799 10.09 7.94336 9.81787 7.9541 9.56006C7.96842 9.29867 8.00244 9.04622 8.05615 8.80273C8.10986 8.55566 8.19222 8.31755 8.30322 8.08838C8.41423 7.85563 8.56641 7.62467 8.75977 7.39551C8.57715 7.51009 8.38916 7.58887 8.1958 7.63184C8.00244 7.6748 7.8055 7.69629 7.60498 7.69629C7.35791 7.69629 7.10547 7.68018 6.84766 7.64795C6.59342 7.61214 6.33382 7.59424 6.06885 7.59424C5.91846 7.59424 5.78776 7.61393 5.67676 7.65332C5.56576 7.69271 5.47266 7.74463 5.39746 7.80908C5.32585 7.87354 5.27214 7.94873 5.23633 8.03467C5.2041 8.12061 5.18799 8.21191 5.18799 8.30859C5.18799 8.40527 5.21126 8.50016 5.25781 8.59326C5.30436 8.68636 5.3724 8.76872 5.46191 8.84033C5.55143 8.91195 5.66064 8.97103 5.78955 9.01758C5.91846 9.06055 6.06527 9.08203 6.22998 9.08203C6.38037 9.08203 6.51644 9.06771 6.63818 9.03906C6.76351 9.01042 6.86914 8.97819 6.95508 8.94238C7.05534 8.90299 7.14486 8.85465 7.22363 8.79736L7.33105 9.02832C7.23438 9.09277 7.12695 9.14827 7.00879 9.19482C6.90853 9.23421 6.79036 9.27181 6.6543 9.30762C6.52181 9.33984 6.38037 9.35596 6.22998 9.35596C6.02588 9.35596 5.83789 9.32731 5.66602 9.27002C5.49772 9.20915 5.3527 9.12858 5.23096 9.02832C5.11279 8.92448 5.02148 8.80273 4.95703 8.66309C4.889 8.51986 4.85498 8.36589 4.85498 8.20117C4.85498 8.00781 4.89079 7.83773 4.9624 7.69092C5.03402 7.54053 5.1307 7.41341 5.25244 7.30957C5.37777 7.20573 5.52279 7.12695 5.6875 7.07324C5.85579 7.01953 6.03662 6.99268 6.22998 6.99268C6.42692 6.99268 6.61133 7.00521 6.7832 7.03027C6.95508 7.05176 7.118 7.07682 7.27197 7.10547C7.42952 7.13053 7.57992 7.1556 7.72314 7.18066C7.86995 7.20215 8.01497 7.21289 8.1582 7.21289C8.30143 7.21289 8.44466 7.19678 8.58789 7.16455C8.73112 7.13232 8.88151 7.07503 9.03906 6.99268L9.25928 7.15381C9.17692 7.26123 9.10531 7.38118 9.04443 7.51367C8.98356 7.64616 8.93164 7.80729 8.88867 7.99707C8.8457 8.18685 8.81348 8.41423 8.79199 8.6792C8.77051 8.94417 8.75977 9.26107 8.75977 9.62988V10.7954C9.15365 10.8276 9.48844 10.9082 9.76416 11.0371C9.95036 10.9082 10.09 10.756 10.1831 10.5806C10.2798 10.4015 10.3496 10.2118 10.3926 10.0112C10.4391 9.81071 10.4696 9.60303 10.4839 9.38818C10.4982 9.17334 10.5161 8.96387 10.5376 8.75977C10.5591 8.55566 10.5949 8.3623 10.645 8.17969C10.6951 7.99707 10.7775 7.83773 10.8921 7.70166C11.0103 7.56559 11.1696 7.45817 11.3701 7.37939C11.5742 7.29704 11.841 7.25586 12.1704 7.25586H12.7236V7.52979ZM8.75977 11.3916C8.96387 11.3701 9.15186 11.3289 9.32373 11.2681C9.15544 11.2036 8.96745 11.1606 8.75977 11.1392V11.3916ZM7.6748 11.2681C7.6748 11.3146 7.69271 11.3522 7.72852 11.3809C7.7679 11.4059 7.83773 11.4238 7.93799 11.4346V11.1284C7.82699 11.1392 7.75537 11.1571 7.72314 11.1821C7.69092 11.2072 7.6748 11.2358 7.6748 11.2681ZM15.5811 14.7324C15.5417 15.0117 15.4844 15.2498 15.4092 15.4468C15.334 15.6401 15.2427 15.7995 15.1353 15.9248C15.0278 16.0465 14.9043 16.1343 14.7646 16.188C14.6286 16.2453 14.4782 16.2739 14.3135 16.2739C14.0807 16.2739 13.8623 16.2059 13.6582 16.0698C13.4577 15.9338 13.284 15.7314 13.1372 15.4629C12.9904 15.1943 12.874 14.8613 12.7881 14.4639C12.7057 14.0664 12.6646 13.6063 12.6646 13.0835C12.6646 12.5356 12.7165 12.0039 12.8203 11.4883C12.9277 10.9727 13.0781 10.4893 13.2715 10.0381C13.4684 9.58691 13.703 9.17513 13.9751 8.80273C14.2508 8.42676 14.557 8.10628 14.8936 7.84131C15.2337 7.57275 15.6007 7.36507 15.9946 7.21826C16.3885 7.06787 16.8003 6.99268 17.23 6.99268C17.5988 6.99268 17.9354 7.04818 18.2397 7.15918C18.5441 7.27018 18.8055 7.42415 19.0239 7.62109C19.2424 7.81803 19.4106 8.05078 19.5288 8.31934C19.647 8.58789 19.7061 8.87793 19.7061 9.18945C19.7061 9.56543 19.6541 9.91634 19.5503 10.2422C19.4465 10.5645 19.3014 10.8599 19.1152 11.1284C18.9326 11.397 18.7142 11.6369 18.46 11.8481C18.2057 12.0594 17.9282 12.2384 17.6274 12.3853C17.3302 12.5321 17.0151 12.6466 16.6821 12.729C16.3527 12.8078 16.0179 12.8525 15.6777 12.8633C15.667 13.3109 15.6545 13.6886 15.6401 13.9966C15.6294 14.3009 15.6097 14.5462 15.5811 14.7324ZM14.6465 12.4819C14.6644 12.4891 14.6859 12.4963 14.7109 12.5034C14.7324 12.5106 14.7575 12.5177 14.7861 12.5249C14.8184 12.5321 14.856 12.5392 14.8989 12.5464C14.8918 12.0988 14.8828 11.6888 14.8721 11.3164C14.8649 10.9404 14.856 10.6128 14.8452 10.3335C14.8309 10.0076 14.8184 9.71403 14.8076 9.45264C14.8327 9.43115 14.8613 9.41325 14.8936 9.39893C14.9222 9.3846 14.9562 9.37207 14.9956 9.36133C15.035 9.35059 15.0833 9.34521 15.1406 9.34521C15.3053 9.34521 15.4378 9.37565 15.5381 9.43652C15.6383 9.49382 15.6885 9.59229 15.6885 9.73193C15.6885 10.3228 15.6885 10.8527 15.6885 11.3218C15.6885 11.7909 15.6849 12.2134 15.6777 12.5894C16.1468 12.5894 16.5711 12.4998 16.9507 12.3208C17.3338 12.1418 17.6597 11.9036 17.9282 11.6064C18.1968 11.3057 18.4045 10.9601 18.5513 10.5698C18.6981 10.1795 18.7715 9.77132 18.7715 9.34521C18.7715 9.07308 18.7339 8.81527 18.6587 8.57178C18.5871 8.32471 18.4761 8.10986 18.3257 7.92725C18.1753 7.74105 17.9855 7.59424 17.7563 7.48682C17.5308 7.37581 17.264 7.32031 16.9561 7.32031C16.6445 7.32031 16.3366 7.37939 16.0322 7.49756C15.7314 7.61572 15.4432 7.79297 15.1675 8.0293C14.8953 8.26562 14.6429 8.55924 14.4102 8.91016C14.181 9.26107 13.9805 9.67106 13.8086 10.1401C13.6403 10.6092 13.5078 11.1356 13.4111 11.7192C13.318 12.2993 13.2715 12.9385 13.2715 13.6367C13.2715 13.9375 13.2858 14.2311 13.3145 14.5176C13.3467 14.8005 13.3986 15.0529 13.4702 15.2749C13.5418 15.4933 13.6367 15.6688 13.7549 15.8013C13.8766 15.9338 14.027 16 14.2061 16C14.3027 16 14.394 15.9803 14.48 15.9409C14.5659 15.9015 14.6411 15.821 14.7056 15.6992C14.77 15.5739 14.8219 15.3966 14.8613 15.1675C14.9007 14.9347 14.9204 14.625 14.9204 14.2383C14.9204 13.9948 14.9186 13.7549 14.915 13.5186C14.9115 13.2786 14.9097 13.0459 14.9097 12.8203C14.856 12.8132 14.8094 12.8042 14.77 12.7935C14.7306 12.7827 14.6966 12.7738 14.668 12.7666C14.6357 12.7559 14.6089 12.7451 14.5874 12.7344L14.6465 12.4819Z" fill="#261F1F" fill-opacity="0.97"/>
</svg>
